<svg xmlns="http://www.w3.org/2000/svg" width="20px" height="20px" viewBox="0 0 19 19" className="icon-facebook"><path fill="#000" d="M19 9.5C19 4.253 14.747 0 9.5 0S0 4.253 0 9.5c0 4.742 3.474 8.672 8.016 9.385v-6.639H5.604V9.5h2.412V7.407c0-2.38 1.418-3.696 3.588-3.696 1.04 0 2.126.185 2.126.185v2.338h-1.197c-1.18 0-1.549.733-1.549 1.484V9.5h2.635l-.421 2.746h-2.214v6.639C15.526 18.172 19 14.242 19 9.5"></path><path fill="#FFF" d="M13.198 12.246l.421-2.746h-2.635V7.718c0-.751.368-1.484 1.549-1.484h1.197V3.896s-1.087-.185-2.126-.185c-2.17 0-3.588 1.315-3.588 3.696V9.5H5.604v2.746h2.412v6.639c.483.075.979.115 1.484.115s1-.04 1.484-.115v-6.639h2.214"></path></svg>