<svg id="instagram-logo" fill="#000" className="icon-instagram" xmlns="http://www.w3.org/2000/svg" width="20px" height="20px" viewBox="0 0 200 200"><path d="M100 18c26.7 0 29.8.1 40.4.6 9.8.4 15 2.1 18.6 3.5 4.7 1.8 8 4 11.5 7.5s5.7 6.8 7.5 11.5c1.3 3.5 3 8.8 3.5 18.6.5 10.6.6 13.7.6 40.4s-.1 29.8-.6 40.4c-.4 9.8-2.1 15-3.5 18.6-1.8 4.7-4 8-7.5 11.5s-6.8 5.7-11.5 7.5c-3.5 1.3-8.8 3-18.6 3.5-10.6.5-13.7.6-40.4.6s-29.8-.1-40.4-.6c-9.8-.4-15-2.1-18.6-3.5-4.7-1.8-8-4-11.5-7.5-3.5-3.6-5.7-6.9-7.5-11.6-1.3-3.5-3-8.8-3.5-18.6-.4-10.5-.5-13.7-.5-40.4s.1-29.8.6-40.4c.4-9.8 2.1-15 3.5-18.6 1.8-4.7 4-8 7.5-11.5s6.8-5.7 11.5-7.5c3.5-1.3 8.8-3 18.6-3.5 10.4-.4 13.6-.5 40.3-.5m0-18C72.8 0 69.4.1 58.7.6c-10.6.5-17.9 2.2-24.2 4.7-6.6 2.5-12.1 6-17.7 11.5S7.8 28 5.2 34.5C2.7 40.8 1 48.1.6 58.8.1 69.4 0 72.8 0 100s.1 30.6.6 41.2c.5 10.6 2.2 17.9 4.6 24.3 2.5 6.6 6 12.1 11.5 17.7 5.6 5.6 11.2 9 17.7 11.5 6.3 2.5 13.6 4.2 24.3 4.6s14 .6 41.2.6 30.6-.1 41.2-.6c10.6-.5 17.9-2.2 24.3-4.6 6.6-2.5 12.1-6 17.7-11.5 5.6-5.6 9-11.2 11.5-17.7 2.5-6.3 4.2-13.6 4.6-24.3.5-10.7.6-14 .6-41.2s-.1-30.6-.6-41.2c-.5-10.6-2.2-17.9-4.6-24.3-2.5-6.6-6-12.1-11.5-17.7s-11.2-9-17.7-11.5c-6.3-2.5-13.6-4.2-24.3-4.6-10.6-.6-14-.7-41.1-.7z"></path><path d="M100 48.6c-28.3 0-51.3 23-51.3 51.3s23 51.3 51.3 51.3 51.3-23 51.3-51.3-23-51.3-51.3-51.3zm0 84.7c-18.4 0-33.3-14.9-33.3-33.3S81.5 66.6 100 66.6s33.3 14.9 33.3 33.3-14.9 33.4-33.3 33.4z"></path><circle cx="153.3" cy="46.6" r="12"></circle></svg>