<?xml version="1.0" standalone="no"?>
<!DOCTYPE svg PUBLIC "-//W3C//DTD SVG 20010904//EN"
 "http://www.w3.org/TR/2001/REC-SVG-20010904/DTD/svg10.dtd">
<svg version="1.0" xmlns="http://www.w3.org/2000/svg"
 width="1400.000000pt" height="1400.000000pt" viewBox="0 0 1400.000000 1400.000000"
 preserveAspectRatio="xMidYMid meet">
<metadata>
Created by potrace 1.11, written by Peter Selinger 2001-2013
</metadata>
<g transform="translate(0.000000,1400.000000) scale(0.100000,-0.100000)"
fill="#000000" stroke="none">
<path d="M0 7000 l0 -7000 7000 0 7000 0 0 7000 0 7000 -7000 0 -7000 0 0
-7000z m7340 6140 c1492 -91 2847 -699 3894 -1746 1413 -1413 2025 -3418 1645
-5384 -293 -1511 -1176 -2867 -2447 -3758 -766 -537 -1655 -889 -2577 -1021
-313 -45 -475 -55 -855 -55 -380 0 -542 10 -855 55 -1630 233 -3102 1140
-4053 2497 -1001 1428 -1326 3216 -895 4916 501 1977 2009 3584 3955 4214 700
227 1468 326 2188 282z"/>
<path d="M6615 12579 c-1459 -105 -2838 -807 -3774 -1924 -676 -808 -1100
-1777 -1230 -2815 -59 -466 -54 -1002 15 -1475 246 -1709 1325 -3221 2874
-4028 969 -505 2076 -702 3180 -566 1471 181 2829 979 3701 2174 313 428 579
933 747 1415 356 1023 404 2088 141 3135 -23 88 -74 259 -114 380 -223 671
-550 1253 -1014 1805 -133 158 -448 473 -611 611 -902 763 -1980 1203 -3155
1289 -163 12 -587 11 -760 -1z m511 -559 c299 -30 431 -47 624 -80 795 -137
1467 -394 2045 -784 1059 -715 1727 -1895 1882 -3326 70 -656 -59 -1609 -317
-2340 -254 -719 -609 -1291 -1114 -1795 -288 -288 -562 -500 -916 -710 -463
-275 -1058 -498 -1580 -594 -115 -21 -529 -65 -538 -57 -2 3 -12 519 -23 1147
-10 628 -20 1143 -22 1145 -2 2 -50 9 -108 14 -57 6 -162 22 -232 37 -71 14
-129 24 -131 22 -1 -2 3 -533 9 -1179 6 -646 10 -1178 8 -1183 -3 -4 -136 -7
-297 -7 l-294 0 -6 263 c-3 144 -8 640 -11 1102 -3 462 -8 939 -11 1061 l-6
220 -47 30 c-135 85 -394 326 -502 469 -306 401 -469 896 -457 1390 l3 140
-820 332 c-451 183 -820 333 -821 333 -1 0 -109 -117 -757 -822 l-347 -378
-219 202 c-213 195 -220 203 -203 221 122 138 4675 5093 4680 5095 8 2 38
-1541 51 -2550 3 -278 9 -509 13 -513 3 -3 58 5 121 19 63 14 125 26 137 26
l23 0 -7 1068 c-3 587 -9 1277 -13 1535 -3 257 -4 467 -1 467 2 0 94 -9 204
-20z"/>
<path d="M7525 11243 c3 -70 8 -607 11 -1193 l6 -1065 141 -28 c323 -63 627
-197 899 -399 105 -78 300 -267 388 -378 527 -661 627 -1568 255 -2325 -116
-237 -245 -414 -441 -606 -263 -256 -581 -441 -920 -536 l-97 -26 6 -351 c4
-193 10 -565 13 -826 3 -261 7 -480 9 -487 6 -20 297 61 535 149 831 308 1515
839 1988 1544 201 300 380 674 506 1057 196 592 306 1361 267 1867 -62 808
-324 1567 -742 2152 -525 732 -1281 1222 -2269 1468 -147 37 -410 90 -513 105
l-47 6 5 -128z"/>
<path d="M4952 9315 c-590 -643 -1069 -1172 -1065 -1176 10 -8 1319 -539 1331
-539 5 0 19 26 31 58 63 156 192 372 311 522 114 143 380 389 484 447 13 7 13
102 5 723 -6 393 -13 809 -17 924 l-7 209 -1073 -1168z"/>
<path d="M6940 8874 c-535 -71 -1063 -376 -1370 -789 -239 -323 -366 -629
-421 -1015 -18 -128 -15 -413 5 -550 35 -229 91 -409 191 -615 106 -218 231
-394 404 -565 548 -546 1326 -741 2073 -519 670 199 1227 777 1403 1456 169
650 24 1325 -398 1848 -274 340 -701 608 -1133 710 -227 54 -525 70 -754 39z
m-470 -315 c0 -5 -40 -29 -89 -54 -212 -106 -352 -206 -506 -360 -102 -101
-234 -272 -284 -367 -53 -101 -72 -128 -86 -128 -38 0 -26 31 71 192 75 124
130 194 244 312 159 165 317 280 529 387 71 36 98 45 108 37 7 -6 13 -14 13
-19z m-25 -117 c0 -6 -47 -39 -103 -72 -157 -90 -255 -164 -378 -285 -107
-106 -213 -239 -283 -355 -19 -30 -38 -58 -44 -62 -15 -9 -27 0 -27 21 0 27
148 245 229 336 135 153 333 310 493 392 82 42 113 49 113 25z m65 -71 c0 -15
-26 -33 -100 -72 -216 -113 -461 -336 -598 -544 -100 -153 -97 -149 -110 -141
-22 13 -12 41 46 131 161 247 361 436 616 582 117 67 146 76 146 44z m-20
-118 c-1 -12 -31 -35 -83 -66 -230 -134 -454 -359 -578 -582 -36 -66 -46 -76
-66 -68 -21 8 -16 24 39 113 144 236 339 433 567 569 89 54 121 63 121 34z
m80 -60 c0 -12 -29 -35 -85 -66 -218 -124 -396 -289 -528 -492 -80 -122 -77
-119 -94 -102 -14 14 -11 22 22 77 134 221 315 400 541 536 110 66 144 77 144
47z m-46 -131 c9 -14 -8 -30 -85 -80 -189 -124 -377 -332 -478 -529 -20 -41
-43 -54 -56 -33 -8 13 36 97 101 195 102 153 241 293 397 400 77 52 110 65
121 47z m95 -66 c15 -17 15 -17 -104 -95 -154 -100 -261 -205 -374 -363 -59
-84 -91 -108 -91 -70 0 34 116 189 220 293 71 71 140 129 214 177 60 40 112
72 116 72 4 0 13 -6 19 -14z m85 -99 c-2 -7 -30 -25 -62 -42 -123 -64 -268
-191 -379 -332 -66 -85 -79 -95 -89 -68 -12 30 127 201 239 295 129 109 261
188 283 169 7 -6 11 -16 8 -22z m-1 -101 c7 -17 3 -21 -93 -84 -83 -54 -230
-197 -282 -272 -18 -27 -41 -50 -50 -50 -78 -1 145 256 321 372 78 51 96 57
104 34z m42 -88 c0 -9 -36 -40 -80 -69 -103 -69 -218 -185 -280 -282 -31 -50
-55 -77 -67 -77 -31 0 -21 31 37 117 67 98 218 244 306 296 66 38 84 42 84 15z
m113 -61 c2 -11 -13 -24 -45 -41 -70 -35 -190 -123 -239 -172 -22 -24 -63 -75
-90 -114 -45 -66 -71 -83 -81 -54 -6 18 78 135 147 204 71 71 132 117 225 167
64 34 78 36 83 10z m-3 -106 c0 -8 -31 -33 -69 -55 -82 -49 -223 -193 -255
-260 -23 -49 -45 -66 -63 -48 -18 18 67 148 152 232 110 111 235 180 235 131z
m496 -27 c318 -55 560 -331 576 -660 10 -174 -30 -313 -127 -452 -72 -103
-158 -176 -275 -232 -117 -57 -187 -73 -310 -74 -118 0 -224 25 -324 77 -250
129 -391 362 -391 644 0 240 117 459 315 592 87 58 158 86 264 105 103 19 160
19 272 0z m644 -1004 c14 -22 -87 -191 -165 -274 -85 -92 -242 -198 -262 -178
-18 18 -2 38 56 71 111 62 243 206 310 339 25 49 47 65 61 42z m51 -105 c7
-17 -32 -87 -92 -166 -82 -107 -255 -248 -289 -236 -28 11 -15 32 52 77 83 56
181 154 233 234 75 115 84 124 96 91z m107 -17 c12 -35 -125 -241 -220 -329
-78 -73 -174 -140 -196 -137 -38 6 -28 26 30 65 123 81 266 241 332 371 21 41
45 54 54 30z m413 -82 c8 -22 -76 -192 -152 -309 -45 -69 -102 -138 -178 -213
-103 -103 -237 -204 -271 -204 -28 0 -16 39 18 56 75 39 219 164 302 263 91
110 183 266 236 399 10 25 37 30 45 8z m-349 -12 c6 -17 -108 -182 -176 -256
-72 -78 -216 -190 -239 -186 -33 7 -20 29 51 82 40 30 107 90 148 133 71 76
96 108 153 201 26 41 54 53 63 26z m523 -74 c0 -29 -68 -172 -128 -268 -135
-218 -296 -381 -512 -521 -98 -63 -130 -74 -130 -43 0 11 33 37 88 72 262 164
453 377 590 656 27 56 52 106 56 112 12 19 36 14 36 -8z m-359 -74 c-51 -97
-121 -187 -220 -286 -88 -88 -250 -210 -277 -210 -23 0 -23 30 -1 45 221 152
335 272 481 509 16 25 20 27 33 13 13 -13 11 -21 -16 -71z m204 -54 c-131
-253 -335 -467 -585 -616 -85 -50 -110 -56 -110 -27 0 13 19 30 58 51 75 42
203 132 271 189 110 93 249 276 333 438 52 102 57 108 76 89 12 -12 7 -28 -43
-124z m-317 74 c-69 -134 -238 -302 -412 -411 -69 -43 -79 -46 -93 -33 -17 18
-19 16 108 98 101 65 215 173 290 273 92 124 88 120 104 107 11 -9 12 -17 3
-34z m522 -71 c0 -26 -66 -148 -141 -261 -89 -132 -257 -309 -390 -409 -114
-85 -291 -188 -316 -183 -39 7 -14 35 74 83 268 145 494 362 651 625 27 47 58
102 68 123 18 37 54 52 54 22z m196 -46 c9 -15 -71 -172 -146 -288 -143 -220
-383 -457 -596 -589 -110 -68 -242 -134 -262 -130 -38 7 -11 33 86 84 149 78
252 147 378 257 190 165 348 366 455 580 46 91 68 113 85 86z m-128 -12 c8
-10 2 -31 -25 -83 -121 -236 -353 -496 -580 -651 -118 -80 -240 -146 -258
-139 -31 11 -13 33 58 71 141 75 275 175 401 299 163 159 262 291 350 464 27
54 36 61 54 39z"/>
<path d="M7191 6878 c-52 -19 -65 -68 -30 -112 15 -19 30 -26 54 -26 24 0 39
7 54 26 24 31 26 43 10 78 -14 31 -55 47 -88 34z"/>
</g>
</svg>
