<svg xmlns="http://www.w3.org/2000/svg" viewBox="0 0 200 200" width="20px" height="20px" fill="#000" className="icon-twitter"><path d="M200 38.1c-7.9 3.4-15.7 5.5-23.6 6.3 8.9-5.3 14.9-12.9 18-22.6-8.1 4.8-16.8 8.1-26 9.9-8.1-8.6-18.1-12.9-29.9-12.9-11.3 0-21 4-29 12s-12 17.7-12 29c0 3 .3 6.2 1 9.4-16.8-.9-32.5-5.1-47.2-12.7C36.7 49 24.2 38.9 14 26.3 10.2 32.6 8.4 39.5 8.4 47c0 7 1.6 13.5 4.9 19.5 3.3 6 7.7 10.9 13.3 14.6-6.6-.3-12.8-2-18.5-5.2v.5c0 9.9 3.1 18.6 9.3 26.1 6.2 7.5 14.1 12.2 23.5 14.2-3.6.9-7.1 1.4-10.8 1.4-2.4 0-5-.2-7.7-.6 2.6 8.2 7.4 15 14.5 20.2 7 5.3 15 8 23.9 8.2-14.9 11.7-31.9 17.5-50.9 17.5-3.6 0-6.9-.2-9.9-.5 19 12.3 40 18.4 62.9 18.4 14.6 0 28.2-2.3 41-6.9 12.8-4.6 23.7-10.8 32.7-18.5 9.1-7.7 16.9-16.6 23.4-26.7a121.6 121.6 0 0 0 14.7-31.5c3.2-11 4.8-21.9 4.8-32.9 0-2.4 0-4.1-.1-5.3 8.1-6.1 14.9-13.1 20.6-21.4z"></path></svg>