<svg xmlns="http://www.w3.org/2000/svg" viewBox="0 0 200 200" width="20px" height="20px" fill="#000" className="icon-youtube"><path d="M198 60.02s-1.96-13.8-7.96-19.84c-7.6-7.96-16.12-8-20.04-8.48-28-2.04-69.96-2.04-69.96-2.04h-.08s-42 0-69.96 2.04c-3.92.48-12.44.522-20.04 8.48C3.96 46.26 2 60.02 2 60.02s-2 16.2-2 32.4v15.16c0 16.2 2 32.36 2 32.36s1.96 13.8 7.96 19.84c7.6 7.96 17.6 7.72 22.04 8.56 16 1.52 68 2 68 2s42.04-.08 70-2.08c3.92-.48 12.44-.52 20.04-8.48 6-6.08 7.96-19.84 7.96-19.84s2-16.2 2-32.36V92.42c0-16.2-2-32.4-2-32.4zM79.36 125.98v-56.2l54.04 28.2-54.04 28z"></path></svg>